<svg width="740" height="294" viewBox="0 0 740 294" fill="none" xmlns="http://www.w3.org/2000/svg">
<path d="M61.9219 131.759C24.4819 131.759 0.00187524 105.839 0.00187524 65.8792C0.00187524 25.7392 24.3019 -0.000787258 61.7419 -0.000787258C88.9219 -0.000787258 109.262 13.4992 118.442 37.4392L95.0419 46.6192C89.8219 31.6792 77.9419 24.1192 61.7419 24.1192C38.7019 24.1192 25.3819 39.0592 25.3819 65.6992C25.3819 92.3392 39.0619 107.459 61.9219 107.459C78.4819 107.459 90.1819 99.7192 95.0419 84.4192L118.802 93.4192C109.982 118.079 89.2819 131.759 61.9219 131.759ZM189.59 131.759C153.59 131.759 128.93 105.299 128.93 66.0592C128.93 26.4592 153.59 0.17921 189.59 0.17921C225.95 0.17921 250.43 26.4592 250.43 66.0592C250.43 105.479 225.59 131.759 189.59 131.759ZM189.59 107.459C211.19 107.459 224.87 91.4392 224.87 66.0592C224.87 40.3192 211.19 24.4792 189.59 24.4792C168.17 24.4792 154.31 40.1392 154.31 66.0592C154.31 91.7992 168.17 107.459 189.59 107.459ZM369.473 3.23921H405.833V128.699H380.453V39.0592L352.013 117.539H327.533L299.273 39.5992V128.699H273.893V3.23921H310.073L339.593 87.6592L369.473 3.23921ZM437.981 128.699V3.23921H463.361V128.699H437.981ZM571.506 3.23921H596.886V128.699H570.786L520.926 46.7992V128.699H495.546V3.23921H521.466L571.506 84.5992V3.23921ZM686.464 59.9392H739.384V128.699H721.564L718.684 116.099C710.944 126.719 697.984 131.759 682.144 131.759C645.424 131.759 620.044 104.939 620.044 66.4192C620.044 28.2592 644.884 -0.000787258 682.144 -0.000787258C707.524 -0.000787258 729.124 12.9592 738.664 37.4392L715.264 46.6192C709.864 31.6792 697.444 24.1192 681.784 24.1192C659.464 24.1192 645.424 39.0592 645.424 65.8792C645.424 93.7792 660.724 107.459 683.944 107.459C703.384 107.459 714.004 97.9192 714.004 84.5992V82.7992H686.464V59.9392ZM169.252 292.859C155.932 292.859 141.172 288.359 132.532 283.499L138.292 251.279H140.452C145.312 272.519 155.752 287.639 173.572 287.639C187.792 287.639 198.772 278.639 198.772 264.059C198.772 250.199 189.592 244.259 178.252 235.799L171.592 230.939C162.952 224.459 152.512 215.099 152.512 197.999C152.512 174.059 173.752 157.499 197.872 157.499C209.932 157.499 223.072 161.639 231.352 166.499L225.952 192.599H223.792C218.392 175.679 209.392 162.719 193.912 162.719C181.852 162.719 171.772 170.819 171.772 184.319C171.772 196.919 180.772 203.219 188.512 208.799L195.172 213.659C205.072 220.859 218.212 231.479 218.212 250.379C218.212 275.399 194.092 292.859 169.252 292.859ZM286.813 292.859C253.333 292.859 234.973 272.699 234.973 241.379C234.973 197.459 263.593 157.499 305.893 157.499C339.373 157.499 357.913 177.479 357.913 208.979C357.913 252.899 329.293 292.859 286.813 292.859ZM261.433 253.619C261.433 274.499 268.993 287.819 285.193 287.819C313.633 287.819 331.273 232.919 331.273 196.739C331.273 175.859 323.713 162.539 307.513 162.539C278.893 162.539 261.433 217.259 261.433 253.619ZM420.667 292.859C387.187 292.859 368.827 272.699 368.827 241.379C368.827 197.459 397.447 157.499 439.747 157.499C473.227 157.499 491.767 177.479 491.767 208.979C491.767 252.899 463.147 292.859 420.667 292.859ZM395.287 253.619C395.287 274.499 402.847 287.819 419.047 287.819C447.487 287.819 465.127 232.919 465.127 196.739C465.127 175.859 457.567 162.539 441.367 162.539C412.747 162.539 395.287 217.259 395.287 253.619ZM579.801 293.219L527.781 178.739L511.941 252.359C507.441 273.599 509.061 288.179 519.861 288.539L519.501 290.699H482.961L483.501 288.539C494.121 287.819 501.321 273.599 505.821 252.359L520.761 182.519C523.821 168.839 517.521 163.259 510.501 161.819L510.861 159.659H547.761L587.541 248.039L598.701 194.939C602.481 176.579 601.761 163.439 590.241 161.819L590.781 159.659H624.801L624.261 161.819C613.821 162.179 608.601 176.579 604.821 194.939L583.941 293.219H579.801Z" fill="white"/>
</svg>
