<svg width="498" height="57" viewBox="0 0 498 57" fill="none" xmlns="http://www.w3.org/2000/svg">
<path d="M357.691 29.947C356.41 28.732 355.001 27.662 353.488 26.7563C351.898 25.7989 350.235 24.9693 348.516 24.2754C346.776 23.5721 345.037 22.8819 343.298 22.2177C341.558 21.5535 339.903 20.8503 338.325 20.1079C336.852 19.4274 335.444 18.6145 334.116 17.6791C332.922 16.8389 331.928 15.7425 331.206 14.4689C330.272 12.7701 329.933 10.8036 330.245 8.88719C330.557 6.97074 331.502 5.2162 332.926 3.90701C334.9 2.10407 337.499 1.1546 340.162 1.26329C341.922 1.25642 343.667 1.59023 345.302 2.24654C347.007 2.95584 348.568 3.97568 349.906 5.25491C351.52 6.82455 352.849 8.66702 353.831 10.6986C355.079 13.2205 356.017 15.886 356.624 18.6363H357.633V0.0781698H355.693C355.396 1.56282 354.568 1.89491 352.977 1.89491C351.308 1.69895 349.653 1.39004 348.024 0.970263C345.551 0.390716 343.024 0.0807157 340.485 0.0456121C338.28 0.0416433 336.084 0.330648 333.954 0.905147C331.905 1.45547 329.945 2.29977 328.135 3.41212C326.385 4.49218 324.921 5.98229 323.867 7.75538C322.78 9.58582 322.22 11.685 322.25 13.8177C322.229 15.6518 322.602 17.4688 323.343 19.1442C324.025 20.699 325.016 22.0971 326.253 23.2531C327.54 24.4278 328.942 25.4684 330.437 26.3591C332.042 27.3289 333.712 28.1862 335.435 28.9247C337.189 29.68 338.942 30.4158 340.692 31.1321C342.444 31.8484 344.106 32.6168 345.684 33.4242C347.152 34.1651 348.553 35.0368 349.867 36.0289C351.053 36.9253 352.044 38.0579 352.777 39.3563C353.516 40.6719 353.893 42.1622 353.87 43.6735C353.894 45.1413 353.607 46.5973 353.028 47.9447C352.449 49.292 351.592 50.4998 350.514 51.4875C348.277 53.6233 345.406 54.6934 341.901 54.6977C339.601 54.7473 337.317 54.3052 335.199 53.4005C333.081 52.4958 331.178 51.1491 329.615 49.4493C326.309 45.9765 324.154 41.2013 323.149 35.1238H321.972V55.961H323.266C323.48 55.1995 323.914 54.5194 324.514 54.0075C325.058 53.6023 325.719 53.3874 326.395 53.3954C327.406 53.4687 328.401 53.688 329.35 54.0465C331.014 54.5791 332.706 55.0139 334.42 55.3489C336.839 55.808 339.297 56.0261 341.759 56C344.599 56.0295 347.424 55.5737 350.113 54.6521C352.426 53.8829 354.567 52.6663 356.417 51.0707C358.024 49.6586 359.342 47.9444 360.297 46.0242C361.191 44.2245 361.66 42.2412 361.668 40.2289C361.696 38.2408 361.333 36.2669 360.601 34.4205C359.96 32.7368 358.968 31.2113 357.691 29.947Z" fill="#18181B"/>
<path d="M471.785 51.9108C471.565 52.2536 471.265 52.5367 470.911 52.7354C470.557 52.9341 470.16 53.0422 469.755 53.0504C467.656 53.0504 466.488 50.029 466.25 43.9862C466.2 41.4797 465.89 38.9853 465.326 36.5434C464.857 34.6017 464.013 32.7718 462.843 31.1583C461.659 29.5686 460.058 28.3438 458.22 27.6225C455.91 26.7515 453.475 26.2654 451.01 26.1834C456.446 25.3629 460.541 23.7806 463.295 21.4364C466.05 19.0922 467.423 16.2857 467.414 13.0169C467.414 8.75829 465.878 5.52419 462.804 3.31457C459.849 1.18527 455.148 0.110854 448.786 0.0587611V0.0262022H423.128V1.10713C425.715 1.18527 427.544 1.5369 428.618 2.16202C429.149 2.47213 429.584 2.9267 429.871 3.4737C430.158 4.0207 430.286 4.63803 430.241 5.25504V50.6411C430.241 53.1936 427.87 54.5784 423.128 54.7955V55.8699H449.238V54.7434C445.79 54.5828 443.419 54.1161 442.125 53.3434C441.532 53.0384 441.035 52.5714 440.692 51.9957C440.349 51.42 440.173 50.7588 440.186 50.0876V26.8281L444.065 26.9843C448.501 27.1493 451.598 28.3062 453.357 30.455C455.116 32.6039 456.14 36.1571 456.428 41.1146C456.747 47.0488 457.61 51.1077 459.015 53.2913C460.42 55.4749 462.929 56.5601 466.541 56.5471C467.475 56.5875 468.407 56.4351 469.28 56.0991C470.153 55.7632 470.948 55.2508 471.617 54.5936C472.911 53.2913 473.87 51.136 474.495 48.1276L473.389 47.9648C473.106 49.3701 472.562 50.7089 471.785 51.9108ZM440.14 24.9918V4.99457C440.14 3.45349 440.535 2.32915 441.324 1.62155C442.113 0.913954 443.376 0.562326 445.113 0.566667H446.18C449.827 0.566667 452.525 1.51085 454.275 3.39923C456.025 5.2876 456.888 8.42837 456.862 12.8216C456.862 20.9871 452.831 25.0721 444.77 25.0764C442.71 25.0764 441.166 25.0482 440.14 24.9918Z" fill="#18181B"/>
<path d="M495.341 45.9526C494.823 45.4009 494.196 44.9633 493.502 44.6674C492.808 44.3715 492.06 44.2238 491.306 44.2335C489.79 44.2651 488.346 44.8849 487.273 45.9636C486.201 47.0422 485.584 48.4964 485.551 50.0224C485.543 50.7916 485.691 51.5544 485.986 52.2641C486.28 52.9739 486.715 53.6158 487.264 54.1507C487.784 54.7043 488.41 55.1443 489.106 55.4434C489.801 55.7425 490.55 55.8943 491.306 55.8893C492.061 55.8985 492.811 55.7486 493.506 55.4493C494.2 55.1499 494.825 54.7076 495.341 54.1507C495.88 53.6102 496.306 52.9664 496.593 52.2573C496.881 51.5483 497.024 50.7883 497.015 50.0224C497.023 49.2654 496.878 48.5147 496.59 47.8153C496.303 47.116 495.878 46.4824 495.341 45.9526Z" fill="#18181B"/>
<path d="M27.7331 36.1135L4.83017 0H0V55.8893H6.93165V15.7647L25.5475 45.1256H29.9186L48.5345 15.7647V55.8893H55.4597V0H50.6295L27.7331 36.1135Z" fill="#18181B"/>
<path d="M158.316 28.2865L145.649 43.0614V0H138.73V55.8893H143.463L144.013 55.2381L144.019 55.2446L180.32 12.906V55.8893H187.232V0H182.506L158.316 28.2865Z" fill="#18181B"/>
<path d="M208.098 0.0125303H201.16V55.8628H208.098V0.0125303Z" fill="#18181B"/>
<path d="M94.8125 0L69.2197 55.8893H76.3518L97.0886 10.7116L117.825 55.8893H124.957L99.3646 0H94.8125Z" fill="#18181B"/>
<path d="M221.91 0.0455718V1.41953H223.707C224.938 1.48053 226.143 1.79992 227.244 2.3572C227.76 2.67945 228.178 3.13858 228.452 3.68421C228.725 4.22983 228.845 4.84086 228.796 5.45022V51.0316C228.796 53.48 226.501 54.8105 221.91 55.0232V55.9349H247.25V55.0232C245.403 54.9878 243.567 54.7321 241.78 54.2614C240.763 54.0429 239.833 53.529 239.103 52.7832C238.626 52.1407 238.383 51.3516 238.418 50.5498V27.9153C239.885 27.9153 241.942 27.9153 242.776 27.9153C243.422 27.9153 244.069 27.8828 244.754 27.9153C251.613 27.9153 255.197 31.1712 255.508 37.6828H256.613V16.7349H255.527C255.484 18.1733 255.214 19.5956 254.725 20.9479C254.346 22.0092 253.766 22.9865 253.018 23.826C252.322 24.5702 251.484 25.1659 250.555 25.5777C249.611 26.0167 248.613 26.3234 247.587 26.4893C246.478 26.6553 245.358 26.7358 244.237 26.7302C243.752 26.7302 243.28 26.7302 242.795 26.7302C241.845 26.7302 239.75 26.7628 238.437 26.7302V5.75627C238.437 4.21084 238.935 3.10821 239.931 2.44836C240.927 1.78852 242.825 1.45425 245.627 1.44557H247.619C251.417 1.44557 254.527 2.55038 256.949 4.75999C259.372 6.9696 261.299 10.8766 262.73 16.4809L263.648 16.3246V0.0455718H221.91Z" fill="#18181B"/>
<path d="M367.636 0.0455718V15.8167L368.671 15.973C370.313 10.5814 372.253 6.82852 374.49 4.71441C376.728 2.6003 380.079 1.54325 384.545 1.54325H386.892V50.5433C386.892 52.0583 386.388 53.1436 385.379 53.7991C384.37 54.4502 382.592 54.8279 380.045 54.9581V55.9153H390.39C391.49 55.9153 392.595 55.9153 393.701 55.9153H404.047V54.9581C401.391 54.7975 399.546 54.3526 398.512 53.6232C397.477 52.8939 396.96 51.7045 396.96 50.0549V1.54325H399.85C401.761 1.5035 403.667 1.75822 405.502 2.29859C407.074 2.80892 408.502 3.69087 409.666 4.87069C410.929 6.16433 411.969 7.66078 412.744 9.29859C413.754 11.4531 414.593 13.6849 415.253 15.973L416.21 15.8167V0.0455718H367.636ZM368.49 9.03162V8.77767C368.509 8.86232 368.503 8.94697 368.49 9.03162ZM415.453 9.85859V10.0214C415.45 9.96717 415.45 9.91281 415.453 9.85859Z" fill="#18181B"/>
<path d="M270.386 0.0455718V1.28278C272.973 1.36092 274.805 1.71038 275.882 2.33115C276.407 2.64507 276.834 3.10046 277.115 3.64588C277.396 4.19129 277.52 4.805 277.473 5.41767V50.7321C277.519 51.3357 277.394 51.9401 277.112 52.4749C276.831 53.0098 276.404 53.4532 275.882 53.7535C274.817 54.3656 272.985 54.7107 270.386 54.7888V55.8632H307.857C308.245 55.8632 308.646 55.8632 309.04 55.8632H312.273V37.3507H312.054L311.31 37.2856C310.684 39.8431 309.889 42.3556 308.93 44.8065C308.262 46.5661 307.394 48.242 306.344 49.8009C305.49 51.021 304.388 52.0443 303.111 52.8028C301.943 53.4992 300.666 53.9903 299.335 54.2549C297.78 54.5258 296.205 54.6522 294.627 54.6325H294.453C291.912 54.6325 290.088 54.2939 289.002 53.6167C288.465 53.2836 288.029 52.809 287.741 52.2444C287.453 51.6797 287.323 51.0464 287.366 50.413V27.9739H289.661C290.703 27.9739 291.841 27.9739 293.185 27.9739C300.246 27.9739 303.934 31.169 304.249 37.5591H305.277V16.9107H304.249C304.201 18.6077 303.814 20.2776 303.111 21.8205C302.535 23.0676 301.612 24.1194 300.453 24.8484C299.354 25.5136 298.155 25.9972 296.904 26.2809C295.5 26.5723 294.069 26.712 292.636 26.6977C291.621 26.7367 290.644 26.6977 289.661 26.6977H287.366V5.74325C287.323 5.10253 287.452 4.46187 287.739 3.88884C288.027 3.31581 288.464 2.83165 289.002 2.48743C289.907 1.91441 291.349 1.58883 293.263 1.49766V1.45208H295.203C297.074 1.42794 298.941 1.6468 300.757 2.10325C302.339 2.54585 303.813 3.31045 305.09 4.34976C306.592 5.59458 307.815 7.14587 308.678 8.90138C309.846 11.3131 310.763 13.84 311.413 16.4419L312.319 16.2856V0.0455718H270.386Z" fill="#18181B"/>
</svg>
